<mxfile host="app.diagrams.net" modified="2023-12-09T19:36:52.220Z" agent="Mozilla/5.0 (Windows NT 10.0; Win64; x64) AppleWebKit/537.36 (KHTML, like Gecko) Chrome/119.0.0.0 Safari/537.36" etag="4aVUH9ptBTLJ7UmtArjF" version="22.1.7" type="github">
  <diagram name="Page-1" id="heIZBY3hfT8S5v1MYcGq">
    <mxGraphModel dx="700" dy="266" grid="1" gridSize="10" guides="1" tooltips="1" connect="1" arrows="1" fold="1" page="1" pageScale="1" pageWidth="1100" pageHeight="850" math="0" shadow="0">
      <root>
        <mxCell id="0" />
        <mxCell id="1" parent="0" />
        <mxCell id="txiuk_eoXupphcB5So3Y-2" value="" style="rounded=0;whiteSpace=wrap;html=1;fillColor=#FFCE9F;" vertex="1" parent="1">
          <mxGeometry x="50" y="60" width="420" height="250" as="geometry" />
        </mxCell>
        <mxCell id="txiuk_eoXupphcB5So3Y-1" value="" style="rounded=0;whiteSpace=wrap;html=1;fillColor=#FF36C9;" vertex="1" parent="1">
          <mxGeometry x="290" y="60" width="60" height="250" as="geometry" />
        </mxCell>
        <mxCell id="txiuk_eoXupphcB5So3Y-3" value="" style="rounded=0;whiteSpace=wrap;html=1;fillColor=#CC0066;" vertex="1" parent="1">
          <mxGeometry x="50" y="60" width="420" height="30" as="geometry" />
        </mxCell>
        <mxCell id="txiuk_eoXupphcB5So3Y-4" value="&lt;font color=&quot;#ffffff&quot; face=&quot;Courier New&quot;&gt;&lt;b style=&quot;&quot;&gt;About&amp;nbsp; Projects&lt;span style=&quot;white-space: pre;&quot;&gt;&#x9;&lt;/span&gt;&amp;nbsp;Contact&lt;/b&gt;&lt;/font&gt;" style="text;html=1;strokeColor=none;fillColor=none;align=center;verticalAlign=middle;whiteSpace=wrap;rounded=0;" vertex="1" parent="1">
          <mxGeometry x="50" y="60" width="190" height="30" as="geometry" />
        </mxCell>
        <mxCell id="txiuk_eoXupphcB5So3Y-6" value="css animation" style="shape=umlActor;verticalLabelPosition=bottom;verticalAlign=top;html=1;outlineConnect=0;" vertex="1" parent="1">
          <mxGeometry x="180" y="130" width="80" height="140" as="geometry" />
        </mxCell>
        <mxCell id="txiuk_eoXupphcB5So3Y-7" value="&lt;font style=&quot;font-size: 18px;&quot; face=&quot;Times New Roman&quot;&gt;Welcome&amp;nbsp;&lt;br&gt;to my&amp;nbsp;&lt;br&gt;Portfolio&lt;/font&gt;" style="text;html=1;strokeColor=none;fillColor=none;align=center;verticalAlign=middle;whiteSpace=wrap;rounded=0;" vertex="1" parent="1">
          <mxGeometry x="360" y="110" width="100" height="150" as="geometry" />
        </mxCell>
        <mxCell id="txiuk_eoXupphcB5So3Y-8" value="&lt;font style=&quot;font-size: 14px;&quot; face=&quot;Times New Roman&quot;&gt;Tichinia&lt;br&gt;&lt;br&gt;Full Stack Web Developer&lt;br&gt;&lt;br&gt;Saint Louis, Missouri&lt;br&gt;&lt;/font&gt;" style="text;html=1;strokeColor=none;fillColor=none;align=center;verticalAlign=middle;whiteSpace=wrap;rounded=0;" vertex="1" parent="1">
          <mxGeometry x="60" y="150" width="110" height="100" as="geometry" />
        </mxCell>
        <mxCell id="txiuk_eoXupphcB5So3Y-16" value="" style="rounded=0;whiteSpace=wrap;html=1;fillColor=#FFCE9F;" vertex="1" parent="1">
          <mxGeometry x="50" y="350" width="420" height="250" as="geometry" />
        </mxCell>
        <mxCell id="txiuk_eoXupphcB5So3Y-18" value="" style="rounded=0;whiteSpace=wrap;html=1;fillColor=#CC0066;" vertex="1" parent="1">
          <mxGeometry x="50" y="350" width="420" height="30" as="geometry" />
        </mxCell>
        <mxCell id="txiuk_eoXupphcB5So3Y-19" value="&lt;font color=&quot;#ffffff&quot; face=&quot;Courier New&quot;&gt;&lt;b style=&quot;&quot;&gt;About&amp;nbsp; Projects&lt;span style=&quot;white-space: pre;&quot;&gt;&#x9;&lt;/span&gt;&amp;nbsp;Contact&lt;/b&gt;&lt;/font&gt;" style="text;html=1;strokeColor=none;fillColor=none;align=center;verticalAlign=middle;whiteSpace=wrap;rounded=0;" vertex="1" parent="1">
          <mxGeometry x="50" y="350" width="190" height="30" as="geometry" />
        </mxCell>
        <mxCell id="txiuk_eoXupphcB5So3Y-20" value="" style="rounded=0;whiteSpace=wrap;html=1;fillColor=#FFCE9F;" vertex="1" parent="1">
          <mxGeometry x="30" y="630" width="420" height="250" as="geometry" />
        </mxCell>
        <mxCell id="txiuk_eoXupphcB5So3Y-21" value="" style="rounded=0;whiteSpace=wrap;html=1;fillColor=#FF36C9;" vertex="1" parent="1">
          <mxGeometry x="270" y="630" width="60" height="250" as="geometry" />
        </mxCell>
        <mxCell id="txiuk_eoXupphcB5So3Y-22" value="" style="rounded=0;whiteSpace=wrap;html=1;fillColor=#CC0066;" vertex="1" parent="1">
          <mxGeometry x="30" y="630" width="420" height="30" as="geometry" />
        </mxCell>
        <mxCell id="txiuk_eoXupphcB5So3Y-23" value="&lt;font color=&quot;#ffffff&quot; face=&quot;Courier New&quot;&gt;&lt;b style=&quot;&quot;&gt;About&amp;nbsp; Projects&lt;span style=&quot;white-space: pre;&quot;&gt;&#x9;&lt;/span&gt;&amp;nbsp;Contact&lt;/b&gt;&lt;/font&gt;" style="text;html=1;strokeColor=none;fillColor=none;align=center;verticalAlign=middle;whiteSpace=wrap;rounded=0;" vertex="1" parent="1">
          <mxGeometry x="30" y="630" width="190" height="30" as="geometry" />
        </mxCell>
        <mxCell id="txiuk_eoXupphcB5So3Y-30" value="" style="group" vertex="1" connectable="0" parent="1">
          <mxGeometry x="70" y="405" width="375" height="160" as="geometry" />
        </mxCell>
        <mxCell id="txiuk_eoXupphcB5So3Y-25" value="Hater-Be-Gone" style="rounded=1;whiteSpace=wrap;html=1;" vertex="1" parent="txiuk_eoXupphcB5So3Y-30">
          <mxGeometry width="115" height="75" as="geometry" />
        </mxCell>
        <mxCell id="txiuk_eoXupphcB5So3Y-26" value="Plantiverse &lt;br&gt;intro screen" style="rounded=1;whiteSpace=wrap;html=1;" vertex="1" parent="txiuk_eoXupphcB5So3Y-30">
          <mxGeometry x="130" width="115" height="75" as="geometry" />
        </mxCell>
        <mxCell id="txiuk_eoXupphcB5So3Y-27" value="Angela Davis" style="rounded=1;whiteSpace=wrap;html=1;" vertex="1" parent="txiuk_eoXupphcB5So3Y-30">
          <mxGeometry x="65" y="85" width="115" height="75" as="geometry" />
        </mxCell>
        <mxCell id="txiuk_eoXupphcB5So3Y-28" value="Feedback Survey" style="rounded=1;whiteSpace=wrap;html=1;" vertex="1" parent="txiuk_eoXupphcB5So3Y-30">
          <mxGeometry x="200" y="85" width="115" height="75" as="geometry" />
        </mxCell>
        <mxCell id="txiuk_eoXupphcB5So3Y-29" value="Tic-Tac-Toe" style="rounded=1;whiteSpace=wrap;html=1;" vertex="1" parent="txiuk_eoXupphcB5So3Y-30">
          <mxGeometry x="260" width="115" height="75" as="geometry" />
        </mxCell>
        <mxCell id="txiuk_eoXupphcB5So3Y-31" value="" style="endArrow=classic;html=1;rounded=0;" edge="1" parent="1" target="txiuk_eoXupphcB5So3Y-16">
          <mxGeometry width="50" height="50" relative="1" as="geometry">
            <mxPoint x="540" y="430" as="sourcePoint" />
            <mxPoint x="350" y="470" as="targetPoint" />
          </mxGeometry>
        </mxCell>
        <mxCell id="txiuk_eoXupphcB5So3Y-32" value="netlify Links" style="rounded=0;whiteSpace=wrap;html=1;" vertex="1" parent="1">
          <mxGeometry x="530" y="410" width="70" height="40" as="geometry" />
        </mxCell>
        <mxCell id="txiuk_eoXupphcB5So3Y-33" value="&lt;font style=&quot;font-size: 18px;&quot; face=&quot;Comic Sans MS&quot;&gt;Lets Connect!&lt;/font&gt;" style="text;html=1;strokeColor=none;fillColor=none;align=center;verticalAlign=middle;whiteSpace=wrap;rounded=0;" vertex="1" parent="1">
          <mxGeometry x="50" y="670" width="190" height="50" as="geometry" />
        </mxCell>
        <mxCell id="txiuk_eoXupphcB5So3Y-35" value="" style="dashed=0;outlineConnect=0;html=1;align=center;labelPosition=center;verticalLabelPosition=bottom;verticalAlign=top;shape=mxgraph.webicons.linkedin;fillColor=#0095DB;gradientColor=#006391" vertex="1" parent="1">
          <mxGeometry x="59.999999999999986" y="791" width="61.55" height="59.1" as="geometry" />
        </mxCell>
        <mxCell id="txiuk_eoXupphcB5So3Y-36" value="" style="shape=image;html=1;verticalAlign=top;verticalLabelPosition=bottom;labelBackgroundColor=#ffffff;imageAspect=0;aspect=fixed;image=https://cdn4.iconfinder.com/data/icons/ionicons/512/icon-social-github-128.png" vertex="1" parent="1">
          <mxGeometry x="104" y="714" width="82" height="82" as="geometry" />
        </mxCell>
        <mxCell id="txiuk_eoXupphcB5So3Y-37" value="" style="shape=image;html=1;verticalAlign=top;verticalLabelPosition=bottom;labelBackgroundColor=#ffffff;imageAspect=0;aspect=fixed;image=https://cdn4.iconfinder.com/data/icons/social-media-and-logos-11/32/Logo_Gmail_envelope_letter_email-128.png" vertex="1" parent="1">
          <mxGeometry x="160" y="780" width="80" height="80" as="geometry" />
        </mxCell>
        <mxCell id="txiuk_eoXupphcB5So3Y-38" value="css animation" style="shape=umlActor;verticalLabelPosition=bottom;verticalAlign=top;html=1;outlineConnect=0;" vertex="1" parent="1">
          <mxGeometry x="250" y="690" width="90" height="150" as="geometry" />
        </mxCell>
        <mxCell id="txiuk_eoXupphcB5So3Y-39" value="&lt;font style=&quot;font-size: 14px;&quot; face=&quot;Times New Roman&quot;&gt;Tichinia&lt;br&gt;&lt;br&gt;Full Stack Web Developer&lt;br&gt;&lt;br&gt;Saint Louis, Missouri&lt;br&gt;&lt;/font&gt;" style="text;html=1;strokeColor=none;fillColor=none;align=center;verticalAlign=middle;whiteSpace=wrap;rounded=0;" vertex="1" parent="1">
          <mxGeometry x="330" y="720" width="110" height="100" as="geometry" />
        </mxCell>
      </root>
    </mxGraphModel>
  </diagram>
</mxfile>
